PathFileType	4	(X/Y/Z)	 s09c0302.trc
DataRate	CameraRate	NumFrames	NumMarkers	Units	OrigDataRate	OrigDataStartFrame	OrigNumFrames
200	200	7	50	mm	200	1751	2000
Frame#	Time	racr			lacr			c7			jug			rlel			rdr			llel			ldr			s2			lic			ric			lasi			rasi			rpsi			lpsi			rgt			lgt			rth1			rth2			rth3			rth4			rlfc			rmfc			rsh1			rsh2			rsh3			rsh4			rlmal			rmmal			rcal			rtoe			rmt5			lth1			lth2			lth4			lth3			llfc			lmfc			llmal			lmmal			lcal			lmt5			lsh1			lsh2			lsh3			lsh4			ltoe			SBIKE			LBIKE			RBIKE			
		X1	Y1	Z1	X2	Y2	Z2	X3	Y3	Z3	X4	Y4	Z4	X5	Y5	Z5	X6	Y6	Z6	X7	Y7	Z7	X8	Y8	Z8	X9	Y9	Z9	X10	Y10	Z10	X11	Y11	Z11	X12	Y12	Z12	X13	Y13	Z13	X14	Y14	Z14	X15	Y15	Z15	X16	Y16	Z16	X17	Y17	Z17	X18	Y18	Z18	X19	Y19	Z19	X20	Y20	Z20	X21	Y21	Z21	X22	Y22	Z22	X23	Y23	Z23	X24	Y24	Z24	X25	Y25	Z25	X26	Y26	Z26	X27	Y27	Z27	X28	Y28	Z28	X29	Y29	Z29	X30	Y30	Z30	X31	Y31	Z31	X32	Y32	Z32	X33	Y33	Z33	X34	Y34	Z34	X35	Y35	Z35	X36	Y36	Z36	X37	Y37	Z37	X38	Y38	Z38	X39	Y39	Z39	X40	Y40	Z40	X41	Y41	Z41	X42	Y42	Z42	X43	Y43	Z43	X44	Y44	Z44	X45	Y45	Z45	X46	Y46	Z46	X47	Y47	Z47	X48	Y48	Z48	X49	Y49	Z49	X50	Y50	Z50	
1751	8.7550	659.848873	1362.937505	-90.989378	721.893971	1320.100097	-421.432829	676.062824	1387.205472	-259.399350	684.875757	1252.439232	-246.221990	580.361373	1101.914115	-50.974253	716.921297	882.945660	-70.490965	600.155452	1081.268651	-523.415326	718.760809	880.151536	-462.281634	208.497237	1164.256582	-315.903997	371.385045	1120.075133	-432.218913	335.825816	1177.045471	-145.711726	392.112746	1062.843581	-394.553919	374.277770	1113.292984	-149.916660	230.423419	1201.268248	-255.703532	248.824236	1188.881090	-363.462867	315.249588	1058.341612	-91.376987	295.351294	990.743449	-464.884173	433.349281	985.226946	-101.138486	517.787006	963.985509	-111.371332	577.589361	898.350331	-114.616791	532.819284	986.377183	-137.559973	642.038198	817.685755	-142.161310	620.057672	791.434103	-240.270654	558.875081	761.197256	-103.333162	510.238160	686.189712	-104.806390	431.185559	648.641184	-93.802415	526.144363	666.402998	-134.388156	352.938159	574.810099	-81.741814	354.131444	582.901095	-159.181430	262.913210	584.240234	-112.786761	486.257124	442.320616	-134.835999	411.982473	469.658766	-65.916116	319.349173	862.216202	-461.108365	357.021490	786.430058	-452.409684	392.856990	793.060666	-439.998493	350.386678	696.626681	-440.559081	349.965481	601.615736	-422.334550	359.190908	586.375486	-325.064876	155.016517	292.797523	-414.817594	179.606065	293.935064	-347.121235	83.209192	295.198121	-373.636231	205.044001	169.557525	-430.597843	289.854996	519.995748	-442.294983	267.282287	436.991828	-431.024297	204.281202	375.009451	-424.120240	293.225288	426.039926	-402.551811	294.249915	140.118669	-360.504449	-65.345310	852.022993	-239.982009	20.754026	84.623935	-442.270567	20.989150	84.175835	-43.925775	
1752	8.7600	660.262915	1362.465583	-87.571949	723.937271	1321.054185	-417.378013	677.777335	1387.516613	-255.611003	685.066459	1252.548207	-243.530695	580.497620	1101.722437	-49.008157	716.885736	882.812586	-69.772956	602.601748	1082.739090	-521.505827	719.332898	880.245037	-461.905726	209.485969	1166.895623	-314.287799	372.051844	1123.266598	-431.709125	337.267547	1178.379263	-144.411881	392.321803	1065.638158	-396.086157	375.118771	1114.404008	-149.511505	231.595493	1203.721212	-253.847789	249.865640	1191.811227	-361.931526	316.237011	1059.638549	-90.992340	295.363730	993.847641	-464.561821	432.941544	985.097188	-101.043175	517.245556	963.117500	-111.141286	576.434775	897.215061	-114.840616	532.463851	985.629555	-136.907549	640.973356	816.163963	-142.842633	618.830938	790.330432	-240.714421	559.080802	758.002813	-103.933412	512.001093	681.865479	-105.305402	433.896995	642.554899	-94.116633	528.270214	662.552325	-135.029753	357.306837	567.105452	-82.126562	358.096027	575.267961	-159.642751	266.379488	573.702809	-113.082781	495.391074	439.796925	-134.214222	419.789278	464.452471	-65.840047	321.367394	865.128766	-461.219643	360.092379	789.944973	-452.900317	395.928094	796.760168	-441.220096	354.490774	699.901052	-441.305276	354.242135	604.283946	-423.685924	365.492239	588.647971	-327.041396	151.839154	300.526874	-414.837551	176.341291	300.812913	-346.909337	80.370998	305.523208	-373.298087	197.414482	175.515978	-430.460947	292.450455	523.963401	-443.162187	267.803764	441.598875	-431.424396	203.230308	381.306367	-424.289661	293.435611	430.183337	-402.919463	285.154804	143.166750	-361.437458	-65.256751	852.065042	-239.788523	20.759450	84.742748	-442.203930	20.995774	84.178584	-43.904726	
1753	8.7650	660.736467	1362.341344	-84.296119	725.560592	1322.166848	-413.300217	678.730889	1387.717478	-251.397056	685.853359	1252.659971	-240.146248	581.143706	1101.658671	-47.157709	716.869522	882.716754	-69.019846	606.033914	1084.065773	-519.090311	719.864962	880.324819	-461.453058	210.587825	1169.621223	-312.492082	372.635448	1126.389970	-431.081893	338.687428	1179.815955	-143.112349	392.724063	1068.261603	-396.227813	375.991710	1115.357524	-148.960863	232.868279	1206.066794	-251.938544	251.072287	1194.585114	-360.261941	316.997423	1060.552340	-90.444659	295.381212	996.952567	-464.098600	432.342913	984.571987	-100.761789	516.356455	961.654999	-110.654914	574.653434	895.318618	-114.854218	531.747152	984.162988	-135.597667	639.379991	813.730966	-143.301611	617.084068	788.349692	-240.837392	558.828128	753.852480	-104.160351	513.297506	676.620211	-105.562909	436.243690	635.513830	-94.409199	530.958604	657.806113	-134.995738	361.386862	558.690559	-82.273354	361.646035	566.938647	-159.820661	269.692760	562.552868	-113.417251	503.599658	436.700022	-134.129347	427.174819	458.581651	-65.687019	323.762246	868.181075	-461.545602	363.437141	793.374875	-453.327094	399.290124	800.712538	-442.307075	359.191695	703.421799	-441.957144	359.129355	607.251372	-424.945254	372.268059	590.868247	-329.021337	149.048990	308.595890	-414.968459	173.605140	307.856536	-346.730718	77.954918	316.062751	-372.968401	190.112909	181.991636	-430.288346	295.693791	528.034131	-443.919077	268.806433	446.433428	-431.825396	202.598820	387.900803	-424.566201	294.121922	434.408171	-403.329821	276.509538	146.455597	-361.730364	-65.169933	852.138215	-239.582327	20.798105	84.858452	-442.220167	21.026295	84.183143	-43.890403	
1754	8.7700	661.480873	1362.633592	-81.107036	727.391411	1323.048848	-409.328298	680.205538	1387.936767	-247.702519	686.559751	1252.756931	-237.397165	582.173052	1101.645264	-45.497555	716.983494	882.597365	-68.497176	608.562230	1085.521548	-517.276352	720.353933	880.389660	-460.920819	211.633054	1172.212992	-310.618051	373.248881	1129.514415	-430.477906	340.090382	1180.796640	-141.716082	393.056693	1070.795495	-396.266736	377.028803	1116.292294	-148.219540	234.189993	1208.332397	-249.839759	252.114842	1197.298552	-358.307540	317.782002	1061.268705	-89.540588	295.396975	1000.062545	-463.608815	431.495148	983.511816	-100.285445	515.237662	959.528697	-109.970781	572.791267	892.436962	-114.074567	530.868113	981.966234	-134.427063	637.327036	810.542845	-143.483787	614.773007	785.648814	-240.840496	558.132569	748.839376	-104.035688	514.260347	670.694084	-105.567631	438.098688	628.047614	-94.295269	532.210859	652.454991	-135.285725	365.079313	549.569497	-82.274446	364.770558	557.993947	-159.863502	272.942724	550.057276	-113.298287	511.183800	433.163804	-134.030755	434.078728	452.118664	-65.466165	326.221882	871.201211	-461.475491	367.062389	796.996189	-453.592523	402.940856	804.805690	-443.202568	364.348533	706.901701	-442.618886	364.591374	610.164695	-426.201943	379.294541	593.390286	-331.037972	146.469748	316.835682	-415.114085	171.069527	315.333658	-346.526393	75.804416	326.742307	-372.664600	183.309855	188.853030	-430.050349	299.316434	532.186462	-444.621017	270.169306	451.400534	-432.192801	202.338046	394.827112	-424.825211	295.057709	438.749643	-403.519313	268.129910	150.054111	-361.763148	-65.062073	852.203845	-239.370396	20.832889	84.970958	-442.219167	21.045329	84.216412	-43.877108	
1755	8.7750	661.966382	1363.005151	-78.356984	728.983682	1324.278317	-405.339524	681.331874	1388.389855	-244.058763	687.122959	1253.102165	-234.773745	583.365950	1101.718467	-43.897781	717.211022	882.447533	-67.963462	610.848243	1087.025197	-515.654744	720.775401	880.439408	-460.293270	212.691144	1174.687155	-308.681723	373.877626	1132.395096	-429.565053	341.858069	1181.657838	-140.545776	393.382387	1073.159979	-395.946416	377.914135	1117.023770	-147.483732	235.645986	1210.361657	-247.702111	253.440581	1199.814320	-356.498730	318.218428	1061.695869	-88.729289	295.546776	1003.104945	-463.024219	430.475789	981.983186	-99.696247	513.850704	956.850633	-109.213423	570.387921	888.550402	-113.242452	529.923125	979.275855	-133.341372	634.794334	806.544193	-143.364294	610.949893	781.738611	-242.018828	556.999911	743.160642	-103.577952	514.341573	664.504422	-105.602559	439.521338	619.796303	-94.062938	532.968217	646.386744	-135.287374	368.312703	539.722988	-82.170725	367.603711	548.314912	-159.794249	275.737187	537.063611	-113.239246	518.140221	428.931866	-133.871070	440.728664	445.353017	-64.959975	328.889999	874.197479	-461.353094	370.926683	800.679726	-453.729252	406.838573	809.076159	-443.903599	369.732312	710.548087	-443.337035	370.475860	613.112190	-427.335667	386.454985	595.853374	-332.858167	144.063391	325.355452	-415.240249	168.849274	322.966542	-346.367366	73.925074	337.540081	-372.439388	176.786287	196.204954	-430.021433	303.268363	536.434804	-445.247524	271.808661	456.528975	-432.562402	202.336931	401.972800	-425.080716	296.379913	443.625657	-404.135910	259.347127	152.983601	-359.965562	-64.941270	852.268304	-239.155785	20.854419	85.057145	-442.226790	21.078653	84.202797	-43.847070	
1756	8.7800	662.604786	1363.511487	-75.749935	730.628809	1325.460794	-401.951715	682.524369	1388.764149	-240.508384	687.611250	1253.380000	-232.134309	584.678275	1101.923494	-42.430664	717.318034	882.479469	-67.423045	612.194246	1088.621024	-514.543041	721.079086	880.471347	-459.517828	213.867967	1177.020218	-306.373823	374.465705	1135.048891	-428.945211	343.099032	1182.030178	-139.237779	393.832141	1075.376179	-395.391645	378.842441	1117.397871	-146.548700	237.096995	1212.049334	-245.336734	254.755200	1202.071704	-354.604473	318.408819	1061.732897	-87.832834	295.900903	1006.122075	-462.410088	429.242399	980.024403	-98.987119	512.276144	953.564630	-108.287995	567.726565	884.496358	-112.795154	528.759873	975.960674	-132.100101	631.787203	801.794791	-142.964762	608.110957	777.736276	-241.063210	555.680455	736.965000	-102.922350	514.273215	657.205706	-105.158951	440.400357	610.858434	-93.711467	533.195548	639.403967	-135.102801	371.066940	529.155511	-81.866985	369.249682	538.520858	-159.408096	278.423045	523.623571	-112.935874	524.476110	424.146617	-133.604152	446.369415	437.579687	-64.923137	331.735005	877.136084	-461.153341	375.112806	804.288327	-453.837062	410.872208	813.420244	-444.452683	375.483707	714.237322	-443.956500	376.684067	616.046158	-428.413699	393.493238	598.347093	-334.538695	141.794613	334.093223	-415.355086	166.717400	331.064943	-346.208655	72.191234	348.430237	-372.253740	170.608222	204.025512	-429.746797	307.497602	540.553285	-445.814799	273.544500	461.792029	-432.883024	202.454465	409.377395	-425.296314	297.727410	448.282514	-404.375201	251.665726	158.182000	-359.884847	-64.846492	852.325026	-238.929461	20.880252	85.134972	-442.198834	21.103220	84.211358	-43.811737	
1757	8.7850	663.417460	1364.046912	-73.473491	732.079086	1326.671916	-398.872453	683.536263	1389.133469	-237.648593	688.693728	1253.691604	-230.155107	586.080387	1102.240247	-40.983442	717.564494	882.251944	-66.857293	614.429751	1090.074154	-513.017163	721.291319	880.489188	-458.667061	214.926487	1179.208633	-304.069839	375.144964	1137.608004	-427.662233	344.323461	1182.184987	-137.692115	394.262472	1077.509293	-394.658012	379.709768	1117.469888	-145.617499	238.602291	1213.486040	-242.983286	256.169617	1204.367460	-352.148881	318.415291	1061.326655	-87.062470	296.354108	1008.964713	-461.854975	427.839513	977.577310	-98.127682	510.241460	949.936334	-106.723851	564.720633	879.885127	-112.038728	527.325445	972.287283	-130.755523	628.369205	796.224913	-141.795620	604.685294	772.665041	-239.519881	553.189199	729.166186	-102.020918	513.702142	649.179822	-104.577230	440.863915	601.335219	-93.211001	532.943139	632.043937	-134.716563	373.571871	517.780938	-82.004224	371.855055	527.478560	-159.543892	280.851707	509.735630	-112.549420	530.161773	418.702827	-133.290349	452.289230	429.220876	-64.275412	334.485220	879.897964	-460.554419	379.376224	807.991024	-453.841877	415.005083	817.650475	-444.819998	381.544080	717.991469	-444.418017	383.109252	618.842695	-429.374660	400.255634	601.064780	-335.977296	139.789557	343.139107	-415.380354	164.951522	339.306417	-346.114144	70.700420	359.483970	-372.055672	164.882130	212.185618	-429.637612	311.767153	544.791536	-446.366364	275.402199	467.220976	-433.077196	202.637775	417.066785	-425.502545	298.846116	452.842039	-404.184720	244.541928	163.911745	-359.985177	-64.734008	852.385819	-238.744033	20.909073	85.214596	-442.186232	21.110806	84.220334	-43.809828	
